<?xml version="1.0" standalone="no"?>
<!DOCTYPE svg PUBLIC "-//W3C//DTD SVG 20010904//EN"
 "http://www.w3.org/TR/2001/REC-SVG-20010904/DTD/svg10.dtd">
<svg version="1.0" xmlns="http://www.w3.org/2000/svg"
 width="238.000000pt" height="252.000000pt" viewBox="0 0 238.000000 252.000000"
 preserveAspectRatio="xMidYMid meet">

<g transform="translate(0.000000,252.000000) scale(0.100000,-0.100000)"
fill="#000000" stroke="none">
<path d="M94 2415 c9 -14 89 -125 176 -247 l160 -221 0 -934 0 -933 290 0 290
0 0 440 0 440 64 0 63 0 241 -437 240 -438 331 -3 332 -2 -15 22 c-10 17 -349
601 -522 899 -2 4 28 18 67 32 137 51 272 163 347 290 126 210 130 503 10 730
-71 132 -222 258 -381 315 -183 66 -159 65 -971 69 l-739 4 17 -26z m1358
-476 c69 -15 99 -31 142 -75 49 -51 69 -116 65 -217 -5 -106 -34 -168 -102
-214 -66 -45 -121 -53 -347 -53 l-200 0 0 285 0 285 195 0 c106 0 218 -5 247
-11z"/>
</g>
</svg>
