<svg xmlns="http://www.w3.org/2000/svg" x="0px" y="0px" width="50" height="50" viewBox="0 0 172 172" style="fill:#000000">
  <g fill="none" fill-rule="nonzero" stroke="none" stroke-width="1" stroke-linecap="butt" stroke-linejoin="miter" stroke-miterlimit="10" stroke-dasharray="" stroke-dashoffset="0" font-family="none" font-weight="none" font-size="none" text-anchor="none" style="mix-blend-mode:normal">
    <path d="M0,172v-172h172v172z" fill="none"/>
    <g fill="#000000">
      <path d="M85.355,6.88c-3.07719,0.13438 -6.00656,0.73906 -8.2775,3.01l-67.51,67.51c-1.70656,1.70656 -2.6875,4.03125 -2.6875,6.45c0,2.41875 0.98094,4.63594 2.6875,6.3425l11.395,11.395c0.57781,-3.17125 1.97531,-6.06031 4.3,-8.385l67.6175,-67.51c4.99875,-5.01219 11.59656,-5.0525 15.5875,-5.0525h36.0125v-2.9025c0,-5.99312 -4.86437,-10.8575 -10.8575,-10.8575h-45.15c-1.03469,0 -2.09625,-0.04031 -3.1175,0zM105.995,27.52c-3.07719,0.13438 -6.00656,0.73906 -8.2775,3.01l-67.51,67.51c-1.70656,1.70656 -2.6875,4.03125 -2.6875,6.45c0,2.41875 0.98094,4.63594 2.6875,6.3425l51.6,51.6c1.70656,1.70656 3.92375,2.6875 6.3425,2.6875c2.41875,0 4.74344,-0.98094 6.45,-2.6875l67.51,-67.51c3.03688,-3.03687 3.02344,-7.28312 3.01,-11.395v-4.4075c0,-8.77469 0,-31.90062 0,-38.8075v-1.935c0,-5.99312 -4.86437,-10.8575 -10.8575,-10.8575h-45.15c-1.03469,0 -2.09625,-0.04031 -3.1175,0zM137.6,48.16c1.76031,0 3.49375,0.69875 4.8375,2.0425c2.6875,2.6875 2.6875,6.9875 0,9.675c-2.6875,2.6875 -6.9875,2.6875 -9.675,0c-2.6875,-2.6875 -2.6875,-6.9875 0,-9.675c1.34375,-1.34375 3.07719,-2.0425 4.8375,-2.0425z"/>
    </g>
  </g>
</svg>
