<svg role="img" viewBox="0 0 40 40" xmlns="http://www.w3.org/2000/svg"><title>Tellonym</title><path d="M35,38.2l0.1,0.2l-1.4,1.1l-0.2-0.3c-0.1-0.1-0.1-0.2-0.2-0.3c-0.1-0.2-0.3-0.5-0.4-0.7c-1.1-1.6-2.5-3-4.1-4.1 c-0.1,0-0.2-0.1-0.3-0.1c0,0,0,0-0.1,0c-0.2-0.1-0.3-0.1-0.5-0.2c-0.3-0.1-0.6-0.2-0.9-0.4c0,0,0,0,0,0c-0.3,0.2-0.7,0.5-1,0.7 c-0.4,0.2-0.7,0.5-1.1,0.8c-0.2,0.1-0.4,0.1-0.6,0c-0.3-0.2-0.6-0.4-0.8-0.6c-0.4-0.3-0.8-0.6-1.2-0.8c0,0,0,0,0,0c0,0,0,0,0,0 c-0.3,0.2-0.7,0.5-1,0.7c-0.3,0.2-0.6,0.4-1,0.7c-0.2,0.2-0.5,0.2-0.7,0c-0.5-0.4-1-0.7-1.5-1.1c-0.2-0.1-0.3-0.2-0.5-0.3l-0.4,0.3 c-0.5,0.3-1,0.7-1.4,1c-0.2,0.1-0.3,0.2-0.5,0.2c0,0,0,0,0,0c-0.2,0-0.3-0.1-0.5-0.2c-0.2-0.1-0.3-0.2-0.5-0.3 c-0.5-0.3-0.9-0.7-1.4-1c-0.2,0.1-0.4,0.2-0.6,0.2c-0.3,0.1-0.7,0.3-1,0.4c-0.2,0.1-0.5,0.3-0.7,0.4c-1.7,1.3-3.1,2.8-4.2,4.6 c0,0,0,0,0,0.1l-0.2,0.3l-1.4-1.1L5,38.2c0.5-0.9,1.1-1.8,1.8-2.5c0.6-0.7,1.2-1.3,1.9-1.9c0,0,0,0,0,0c-0.3-0.2-0.6-0.4-1-0.6 c-0.2-0.1-0.3-0.3-0.3-0.5c-0.1-1-0.2-2-0.3-3c0-0.5-0.1-0.9-0.1-1.4c0-0.3-0.1-0.6-0.1-0.9c-0.1-1-0.2-2-0.3-3.1c0-0.3,0-0.5,0-0.8 c0-0.1,0-0.2,0-0.3c0-0.5,0-0.9,0-1.4c0-1,0-2.1,0-3.1c0-1,0-2.1,0-3.1c0-0.4,0-0.9,0-1.3c0-0.6,0-1,0-1.4l0-0.6c0-1.5,0-3,0.1-4.5 c0-0.6,0-1.3,0-1.9c0-0.3,0-0.6,0-0.9c0,0,0-0.1,0-0.1l0-0.4h26.7v0.3c0,0.1,0,0.2,0,0.2c0,0.2,0,0.3,0,0.5c0,1.1,0,2.3,0.1,3.5 c0,1.6,0.1,3.4,0.1,5.3c0,0.4,0,0.8,0,1.2c0,0.7,0,1.5,0,2.3c0,0.5,0,1,0,1.4c0,0.2,0,0.5,0,0.7c0,0.1,0,0.2,0,0.3 c0,0.4,0,0.9,0,1.3c0,0.3,0,0.5,0,0.8c0,0.4,0,0.9,0,1.3c0,0.9-0.1,1.8-0.2,2.6c-0.1,0.9-0.2,1.8-0.3,2.7c0,0.4-0.1,0.8-0.1,1.3 l0,0.3c-0.1,0.7-0.1,1.4-0.2,2.1c0,0.2-0.1,0.4-0.4,0.6c-0.3,0.2-0.6,0.4-1,0.6c0,0,0,0,0,0C32.8,34.9,34,36.4,35,38.2z M31.4,23.7 c0-0.9,0-1.7,0.1-2.6c0-0.5,0-1,0-1.5c0-0.2,0-0.5,0-0.7c0-0.3,0-0.7,0-1c0-0.4,0-0.8-0.1-1.2c0-0.2,0-0.4,0-0.6 c0-0.8-0.1-1.6-0.1-2.4c0-0.4,0-0.8-0.1-1.3l0-0.8c-0.1-1.3-0.1-2.5-0.2-3.8c0-0.3,0-0.6,0-0.9c0,0,0-0.1,0-0.1L8.9,6.7 c0,0.1,0,0.3,0,0.4c0,0.2,0,0.4,0,0.6c0,0.7,0,1.4-0.1,2.1c0,0.8,0,1.6-0.1,2.4l0,0.3c0,1-0.1,2-0.1,3c0,0.2,0,0.4,0,0.6 c0,0.7,0,1.5,0,2.2c0,0.8,0.1,1.7,0.1,2.5c0,0.5,0,1,0.1,1.6c0,0.3,0,0.5,0,0.8c0,0.3,0,0.7,0,1c0.1,1,0.1,2,0.2,2.9 c0,0.4,0.1,0.7,0.1,1.1c0,0.3,0.1,0.6,0.1,1c0.1,0.7,0.1,1.5,0.2,2.2c0,0.1,0,0.2,0.1,0.2c0.4,0.2,0.7,0.5,1.1,0.8 c0.3-0.2,0.6-0.4,0.9-0.5c0.3-0.2,0.6-0.3,0.9-0.5c0.2-0.1,0.4-0.1,0.6,0c0.4,0.2,0.8,0.4,1.3,0.7c0.4,0.2,0.7,0.4,1.1,0.6 c0,0,0,0,0,0c0,0,0,0,0,0c0.4-0.2,0.9-0.5,1.3-0.7c0.3-0.2,0.6-0.3,1-0.5c0.1-0.1,0.2-0.1,0.3-0.1c0.1,0,0.2,0,0.3,0.1 c0.3,0.2,0.6,0.4,0.9,0.6c0.3,0.2,0.6,0.4,0.9,0.6c0.4-0.2,0.7-0.4,1.1-0.6c0.3-0.2,0.6-0.3,1-0.5c0.2-0.1,0.4-0.1,0.6,0 c0.3,0.1,0.6,0.3,0.9,0.4c0.4,0.2,0.8,0.4,1.2,0.5c0,0,0,0,0,0c0,0,0,0,0,0c0.2-0.2,0.5-0.4,0.7-0.5c0.3-0.2,0.5-0.4,0.8-0.6 c0.2-0.2,0.5-0.2,0.7-0.1c0.7,0.2,1.5,0.5,2.2,0.7l0.1,0c0,0,0,0,0,0c0.5-0.2,0.9-0.4,1.3-0.6c0-0.4,0.1-0.7,0.1-1.1l0-0.2 c0-0.4,0.1-0.7,0.1-1.1c0.1-0.9,0.2-1.9,0.3-2.8l0-0.1C31.3,25.3,31.4,24.5,31.4,23.7z M26.5,23.2C26.5,23.2,26.5,23.2,26.5,23.2 c-1.1,0-2-0.9-2-2c0-0.5,0.2-1,0.6-1.4c0.4-0.4,0.9-0.6,1.4-0.6c0,0,0,0,0,0c1.1,0,2,0.9,2,2C28.6,22.3,27.7,23.2,26.5,23.2z M24.8,26.9c0.1,0,0.2,0,0.3,0l0.6,0.1l-0.4,0.4c0,0-0.1,0.1-0.1,0.1c-0.1,0.1-0.2,0.1-0.2,0.2c-0.1,0.1-0.2,0.2-0.3,0.3 c-0.2,0.2-0.5,0.4-0.8,0.7c-1,0.8-2.3,1.3-3.7,1.3c0,0-0.1,0-0.1,0c-0.5,0-1.1-0.2-1.6-0.3c-0.1,0-0.3-0.1-0.4-0.1 c-0.9-0.2-1.5-0.8-2.1-1.4c-0.2-0.2-0.4-0.4-0.5-0.5c-0.1-0.1-0.2-0.2-0.2-0.2L15,27.3l0.3-0.4l0.2,0.1c0.1,0,0.3,0.1,0.4,0.1 c0.3,0.1,0.6,0.2,1,0.3c0.9,0.2,1.9,0.5,2.9,0.7c0.6,0.1,1.2,0,1.7-0.2c0.7-0.2,1.5-0.4,2.2-0.6C24.2,27.1,24.5,27,24.8,26.9 L24.8,26.9z M14.9,22.6c-0.4,0.4-0.9,0.6-1.4,0.6c0,0,0,0,0,0c-0.5,0-1-0.2-1.4-0.6c-0.4-0.4-0.6-0.9-0.6-1.4c0-1.1,0.9-2,2-2 c0,0,0,0,0,0c0.5,0,1,0.2,1.4,0.6c0.4,0.4,0.6,0.9,0.6,1.4C15.5,21.7,15.3,22.2,14.9,22.6z"/></svg>

